<svg width="42" height="10" viewBox="0 0 42 10" fill="none" xmlns="http://www.w3.org/2000/svg">
<path d="M7.056 5.544C7.056 5.736 7.044 5.936 7.02 6.144H2.376C2.408 6.56 2.54 6.88 2.772 7.104C3.012 7.32 3.304 7.428 3.648 7.428C4.16 7.428 4.516 7.212 4.716 6.78H6.9C6.788 7.22 6.584 7.616 6.288 7.968C6 8.32 5.636 8.596 5.196 8.796C4.756 8.996 4.264 9.096 3.72 9.096C3.064 9.096 2.48 8.956 1.968 8.676C1.456 8.396 1.056 7.996 0.768 7.476C0.48 6.956 0.336 6.348 0.336 5.652C0.336 4.956 0.476 4.348 0.756 3.828C1.044 3.308 1.444 2.908 1.956 2.628C2.468 2.348 3.056 2.208 3.72 2.208C4.368 2.208 4.944 2.344 5.448 2.616C5.952 2.888 6.344 3.276 6.624 3.78C6.912 4.284 7.056 4.872 7.056 5.544ZM4.956 5.004C4.956 4.652 4.836 4.372 4.596 4.164C4.356 3.956 4.056 3.852 3.696 3.852C3.352 3.852 3.06 3.952 2.82 4.152C2.588 4.352 2.444 4.636 2.388 5.004H4.956Z" fill="#DE9812"/>
<path d="M10.1905 7.416H12.8785V9H8.13853V0.576H10.1905V7.416ZM20.1693 5.544C20.1693 5.736 20.1573 5.936 20.1333 6.144H15.4893C15.5213 6.56 15.6533 6.88 15.8853 7.104C16.1253 7.32 16.4173 7.428 16.7613 7.428C17.2733 7.428 17.6293 7.212 17.8293 6.78H20.0133C19.9013 7.22 19.6973 7.616 19.4013 7.968C19.1133 8.32 18.7493 8.596 18.3093 8.796C17.8693 8.996 17.3773 9.096 16.8333 9.096C16.1773 9.096 15.5933 8.956 15.0813 8.676C14.5693 8.396 14.1693 7.996 13.8813 7.476C13.5933 6.956 13.4493 6.348 13.4493 5.652C13.4493 4.956 13.5893 4.348 13.8693 3.828C14.1573 3.308 14.5573 2.908 15.0693 2.628C15.5813 2.348 16.1693 2.208 16.8333 2.208C17.4813 2.208 18.0573 2.344 18.5613 2.616C19.0653 2.888 19.4573 3.276 19.7373 3.78C20.0253 4.284 20.1693 4.872 20.1693 5.544ZM18.0693 5.004C18.0693 4.652 17.9493 4.372 17.7093 4.164C17.4693 3.956 17.1693 3.852 16.8093 3.852C16.4653 3.852 16.1733 3.952 15.9333 4.152C15.7013 4.352 15.5573 4.636 15.5013 5.004H18.0693ZM20.8438 5.64C20.8438 4.952 20.9718 4.348 21.2278 3.828C21.4918 3.308 21.8478 2.908 22.2958 2.628C22.7438 2.348 23.2438 2.208 23.7958 2.208C24.2678 2.208 24.6798 2.304 25.0318 2.496C25.3918 2.688 25.6678 2.94 25.8598 3.252V2.304H27.9118V9H25.8598V8.052C25.6598 8.364 25.3798 8.616 25.0198 8.808C24.6678 9 24.2558 9.096 23.7838 9.096C23.2398 9.096 22.7438 8.956 22.2958 8.676C21.8478 8.388 21.4918 7.984 21.2278 7.464C20.9718 6.936 20.8438 6.328 20.8438 5.64ZM25.8598 5.652C25.8598 5.14 25.7158 4.736 25.4278 4.44C25.1478 4.144 24.8038 3.996 24.3958 3.996C23.9878 3.996 23.6398 4.144 23.3518 4.44C23.0718 4.728 22.9318 5.128 22.9318 5.64C22.9318 6.152 23.0718 6.56 23.3518 6.864C23.6398 7.16 23.9878 7.308 24.3958 7.308C24.8038 7.308 25.1478 7.16 25.4278 6.864C25.7158 6.568 25.8598 6.164 25.8598 5.652ZM31.4483 3.42C31.6883 3.052 31.9883 2.764 32.3483 2.556C32.7083 2.34 33.1083 2.232 33.5483 2.232V4.404H32.9843C32.4723 4.404 32.0883 4.516 31.8323 4.74C31.5763 4.956 31.4483 5.34 31.4483 5.892V9H29.3963V2.304H31.4483V3.42ZM38.6092 2.232C39.3932 2.232 40.0172 2.488 40.4812 3C40.9532 3.504 41.1892 4.2 41.1892 5.088V9H39.1492V5.364C39.1492 4.916 39.0332 4.568 38.8012 4.32C38.5692 4.072 38.2572 3.948 37.8652 3.948C37.4732 3.948 37.1612 4.072 36.9292 4.32C36.6972 4.568 36.5812 4.916 36.5812 5.364V9H34.5292V2.304H36.5812V3.192C36.7892 2.896 37.0692 2.664 37.4212 2.496C37.7732 2.32 38.1692 2.232 38.6092 2.232Z" fill="black"/>
</svg>
